<svg xmlns="http://www.w3.org/2000/svg" version="1.1" xmlns:xlink="http://www.w3.org/1999/xlink" xmlns:svgjs="http://svgjs.dev/svgjs" width="2000" height="900" preserveAspectRatio="none" viewBox="0 0 2000 900"><g mask="url(&quot;#SvgjsMask3390&quot;)" fill="none"><rect width="2000" height="900" x="0" y="0" fill="url(&quot;#SvgjsLinearGradient3391&quot;)"></rect><path d="M24 900L924 0L1369.5 0L469.5 900z" fill="url(&quot;#SvgjsLinearGradient3392&quot;)"></path><path d="M717 900L1617 0L2451 0L1551 900z" fill="url(&quot;#SvgjsLinearGradient3392&quot;)"></path><path d="M1961 900L1061 0L213.5 0L1113.5 900z" fill="url(&quot;#SvgjsLinearGradient3393&quot;)"></path><path d="M1335 900L435 0L132 0L1032 900z" fill="url(&quot;#SvgjsLinearGradient3393&quot;)"></path><path d="M1320.975305141626 900L2000 220.97530514162588L2000 900z" fill="url(&quot;#SvgjsLinearGradient3392&quot;)"></path><path d="M0 900L679.0246948583741 900L 0 220.97530514162588z" fill="url(&quot;#SvgjsLinearGradient3393&quot;)"></path></g><defs><mask id="SvgjsMask3390"><rect width="2000" height="900" fill="#ffffff"></rect></mask><linearGradient x1="86.25%" y1="-30.56%" x2="13.75%" y2="130.56%" gradientUnits="userSpaceOnUse" id="SvgjsLinearGradient3391"><stop stop-color="rgba(7, 10, 66, 1)" offset="0.01"></stop><stop stop-color="rgba(0, 0, 0, 1)" offset="1"></stop></linearGradient><linearGradient x1="0%" y1="100%" x2="100%" y2="0%" id="SvgjsLinearGradient3392"><stop stop-color="rgba(15, 70, 185, 0.2)" offset="0"></stop><stop stop-opacity="0" stop-color="rgba(15, 70, 185, 0.2)" offset="0.66"></stop></linearGradient><linearGradient x1="100%" y1="100%" x2="0%" y2="0%" id="SvgjsLinearGradient3393"><stop stop-color="rgba(15, 70, 185, 0.2)" offset="0"></stop><stop stop-opacity="0" stop-color="rgba(15, 70, 185, 0.2)" offset="0.66"></stop></linearGradient></defs></svg>